<svg width="46" height="33" viewBox="0 0 46 33" fill="none" xmlns="http://www.w3.org/2000/svg">
<rect x="0.416667" y="1.1901" width="45.1667" height="31.1667" rx="4.58333" fill="#1F72CD" stroke="#D9D9D9" stroke-width="0.833333"/>
<path fill-rule="evenodd" clip-rule="evenodd" d="M8.24526 12.1074L3.94141 21.7697H9.09373L9.73246 20.2292H11.1925L11.8312 21.7697H17.5025V20.5939L18.0078 21.7697H20.9414L21.4468 20.5691V21.7697H33.2414L34.6756 20.2692L36.0185 21.7697L42.0765 21.7822L37.7591 16.9656L42.0765 12.1074H36.1125L34.7164 13.5803L33.4158 12.1074H20.5847L19.4829 14.6014L18.3553 12.1074H13.2137V13.2432L12.6417 12.1074H8.24526ZM25.8594 13.4805H32.6324L34.704 15.7506L36.8423 13.4805H38.9139L35.7664 16.9652L38.9139 20.4097H36.7484L34.6768 18.1133L32.5276 20.4097H25.8594V13.4805ZM27.5312 16.181V14.9153V14.9141H31.7574L33.6015 16.9382L31.6757 18.9734H27.5312V17.5917H31.2262V16.181H27.5312ZM9.24082 13.4805H11.7523L14.607 20.0325V13.4805H17.3583L19.5632 18.1783L21.5954 13.4805H24.3328V20.4138H22.6671L22.6536 14.9809L20.2251 20.4138H18.7351L16.2931 14.9809V20.4138H12.8664L12.2167 18.8595H8.70695L8.05865 20.4125H6.22266L9.24082 13.4805ZM9.30469 17.4213L10.461 14.6523L11.616 17.4213H9.30469Z" fill="white"/>
</svg>
