<svg width="46" height="33" viewBox="0 0 46 33" fill="none" xmlns="http://www.w3.org/2000/svg">
<rect x="0.416667" y="1.1901" width="45.1667" height="31.1667" rx="4.58333" fill="white" stroke="#D9D9D9" stroke-width="0.833333"/>
<path fill-rule="evenodd" clip-rule="evenodd" d="M10.9733 12.6847C11.5911 12.7376 12.2088 12.3675 12.595 11.8983C12.9746 11.4159 13.2256 10.7683 13.1612 10.1074C12.6143 10.1339 11.9386 10.4775 11.5525 10.9599C11.1985 11.3762 10.8961 12.0503 10.9733 12.6847ZM18.3203 21.197V10.8945H22.0848C24.0282 10.8945 25.386 12.2691 25.386 14.278C25.386 16.287 24.0025 17.6747 22.0334 17.6747H19.8776V21.197H18.3203ZM13.1535 12.8101C12.6093 12.7779 12.1127 12.9782 11.7116 13.1399C11.4535 13.244 11.2349 13.3321 11.0686 13.3321C10.8819 13.3321 10.6543 13.2393 10.3988 13.135C10.0639 12.9984 9.68108 12.8422 9.27962 12.8497C8.3594 12.8629 7.50353 13.3982 7.03377 14.2507C6.06851 15.9557 6.7828 18.4801 7.71589 19.8678C8.17278 20.5551 8.71976 21.3085 9.44049 21.282C9.75757 21.2698 9.98566 21.1704 10.2217 21.0675C10.4935 20.9491 10.7758 20.8261 11.2166 20.8261C11.6421 20.8261 11.9121 20.9459 12.1712 21.0609C12.4176 21.1702 12.6542 21.2753 13.0055 21.2688C13.752 21.2556 14.2218 20.5816 14.6787 19.8943C15.1717 19.1566 15.3884 18.4367 15.4213 18.3275L15.4251 18.3149C15.4243 18.3141 15.4183 18.3112 15.4077 18.3063L15.4076 18.3062L15.4075 18.3062L15.4075 18.3061C15.2427 18.2287 13.9829 17.6364 13.9708 16.0482C13.9587 14.7151 14.97 14.0397 15.1292 13.9334C15.1389 13.9269 15.1455 13.9226 15.1484 13.9203C14.5049 12.9422 13.501 12.8365 13.1535 12.8101ZM28.2316 21.2756C29.2098 21.2756 30.1171 20.7667 30.529 19.9605H30.5611V21.1963H32.0026V16.0682C32.0026 14.5813 30.8443 13.623 29.0618 13.623C27.4079 13.623 26.1853 14.5945 26.1402 15.9294H27.5431C27.6589 15.295 28.2316 14.8786 29.0167 14.8786C29.9691 14.8786 30.5032 15.3346 30.5032 16.1739V16.7422L28.5598 16.8612C26.7516 16.9735 25.7734 17.7335 25.7734 19.0551C25.7734 20.39 26.7837 21.2756 28.2316 21.2756ZM28.6508 20.0539C27.8206 20.0539 27.293 19.6442 27.293 19.0164C27.293 18.3688 27.8013 17.9921 28.773 17.9327L30.5041 17.8203V18.4019C30.5041 19.3667 29.7061 20.0539 28.6508 20.0539ZM36.7818 21.5999C36.1576 23.404 35.4433 23.9987 33.9247 23.9987C33.8088 23.9987 33.4227 23.9855 33.3326 23.9591V22.7233C33.4292 22.7365 33.6673 22.7497 33.7895 22.7497C34.4781 22.7497 34.8642 22.4523 35.1023 21.6792L35.2439 21.2232L32.6055 13.7227H34.2335L36.0675 19.809H36.0997L37.9337 13.7227H39.5168L36.7818 21.5999ZM19.8788 12.2422H21.6742C23.0256 12.2422 23.7978 12.9823 23.7978 14.2842C23.7978 15.586 23.0256 16.3328 21.6677 16.3328H19.8788V12.2422Z" fill="black"/>
</svg>
