<svg width="243" height="85" viewBox="0 0 243 85" fill="none" xmlns="http://www.w3.org/2000/svg">
<path d="M43.9491 80.4757C43.9491 79.5394 43.4386 79.0599 42.6658 79.0599C41.879 79.0599 41.3291 79.5535 41.3291 80.5829V82.887H40.7876V78.6679H41.3291V79.3871C41.5998 78.8625 42.1413 78.5918 42.7674 78.5918C43.7263 78.5918 44.4821 79.1784 44.4821 80.4165V82.8898H43.9491V80.4757Z" fill="#1D6D43"/>
<path d="M48.7656 78.6035C49.6145 78.6035 50.1955 79.0604 50.4352 79.5934V78.6656H50.9766V82.8846H50.4352V81.9483C50.187 82.4898 49.6004 82.9466 48.7571 82.9466C47.6065 82.9466 46.7463 82.0893 46.7463 80.7666C46.7463 79.4439 47.6065 78.6035 48.7656 78.6035ZM48.8643 79.0773C47.9759 79.0773 47.2963 79.6949 47.2963 80.7694C47.2963 81.8355 47.9759 82.4785 48.8643 82.4785C49.7301 82.4785 50.4323 81.8298 50.4323 80.7779C50.4352 79.726 49.7301 79.0773 48.8643 79.0773Z" fill="#1D6D43"/>
<path d="M53.6818 79.1219H53.0952V78.665H53.6818V77.6074H54.2317V78.665H55.3909V79.1219H54.2317V81.7418C54.2317 82.2608 54.4094 82.4215 54.8973 82.4215H55.3909V82.884H54.8099C54.0767 82.884 53.6818 82.5823 53.6818 81.739V79.1219Z" fill="#1D6D43"/>
<path d="M61.2486 82.887H60.7071V82.1453C60.4533 82.6783 59.8949 82.9575 59.2688 82.9575C58.3099 82.9575 57.5513 82.3709 57.5513 81.1328V78.668H58.0843V81.0708C58.0843 82.0071 58.5947 82.4865 59.3675 82.4865C60.1543 82.4865 60.7043 81.993 60.7043 80.9636V78.668H61.2457V82.887H61.2486Z" fill="#1D6D43"/>
<path d="M64.3423 82.887H63.8008V78.6679H64.3423V79.4181C64.5735 78.8992 65.0614 78.5918 65.7862 78.5918V79.1558H65.6396C64.9373 79.1558 64.3423 79.4717 64.3423 80.5321V82.887Z" fill="#1D6D43"/>
<path d="M69.6836 78.6035C70.5325 78.6035 71.1134 79.0604 71.3531 79.5934V78.6656H71.8946V82.8846H71.3531V81.9483C71.105 82.4898 70.5184 82.9466 69.6751 82.9466C68.5245 82.9466 67.6643 82.0893 67.6643 80.7666C67.6643 79.4439 68.5245 78.6035 69.6836 78.6035ZM69.7851 79.0773C68.8967 79.0773 68.2171 79.6949 68.2171 80.7694C68.2171 81.8355 68.8967 82.4785 69.7851 82.4785C70.6509 82.4785 71.3531 81.8298 71.3531 80.7779C71.3531 79.726 70.6481 79.0773 69.7851 79.0773Z" fill="#1D6D43"/>
<path d="M74.4438 77.168H74.9853V82.8873H74.4438V77.168Z" fill="#1D6D43"/>
<path d="M77.5295 77.168H78.071V82.8873H77.5295V77.168Z" fill="#1D6D43"/>
<path d="M83.5362 78.6641H84.0917L81.5874 84.8713H81.0234L81.8412 82.8633L80.1096 78.6669H80.7047L82.143 82.2683L83.5362 78.6641Z" fill="#1D6D43"/>
<path d="M90.1152 82.887H89.5737V78.6679H90.1152V79.4181C90.3465 78.8992 90.8344 78.5918 91.5592 78.5918V79.1558H91.4125C90.7103 79.1558 90.1152 79.4717 90.1152 80.5321V82.887Z" fill="#1D6D43"/>
<path d="M95.5339 82.9486C94.3438 82.9486 93.4385 82.1138 93.4385 80.777C93.4385 79.4318 94.3663 78.6055 95.548 78.6055C96.7381 78.6055 97.6575 79.4318 97.6575 80.777C97.6575 82.1138 96.724 82.9486 95.5339 82.9486ZM95.5339 82.4748C96.3292 82.4748 97.1019 81.9333 97.1019 80.7742C97.1019 79.6151 96.3461 79.0736 95.5395 79.0736C94.733 79.0736 93.9856 79.6151 93.9856 80.7742C93.9884 81.9361 94.7301 82.4748 95.5339 82.4748Z" fill="#1D6D43"/>
<path d="M101.811 82.9486C100.621 82.9486 99.7156 82.1138 99.7156 80.777C99.7156 79.4318 100.643 78.6055 101.825 78.6055C103.015 78.6055 103.935 79.4318 103.935 80.777C103.935 82.1138 103.001 82.9486 101.811 82.9486ZM101.811 82.4748C102.606 82.4748 103.379 81.9333 103.379 80.7742C103.379 79.6151 102.62 79.0736 101.817 79.0736C101.013 79.0736 100.263 79.6151 100.263 80.7742C100.263 81.9361 101.004 82.4748 101.811 82.4748Z" fill="#1D6D43"/>
<path d="M106.394 79.1219H105.808V78.665H106.394V77.6074H106.944V78.665H108.103V79.1219H106.944V81.7418C106.944 82.2608 107.122 82.4215 107.607 82.4215H108.1V82.884H107.522C106.786 82.884 106.394 82.5823 106.394 81.739V79.1219Z" fill="#1D6D43"/>
<path d="M112.131 82.9486C110.932 82.9486 110.058 82.1138 110.058 80.777C110.058 79.4318 110.915 78.6055 112.131 78.6055C113.366 78.6055 114.125 79.4854 114.125 80.5599C114.125 80.7291 114.125 80.8391 114.11 80.9857H110.608C110.656 81.9756 111.344 82.4917 112.131 82.4917C112.85 82.4917 113.335 82.1138 113.49 81.5498H114.063C113.868 82.3451 113.188 82.9486 112.131 82.9486ZM110.608 80.5429H113.575C113.597 79.5615 112.887 79.068 112.105 79.068C111.341 79.068 110.67 79.5615 110.608 80.5429Z" fill="#1D6D43"/>
<path d="M118.205 78.6024C118.96 78.6024 119.595 79.0198 119.866 79.5753V77.1641H120.407V82.8834H119.866V81.9415C119.618 82.4971 119.031 82.9455 118.196 82.9455C117.037 82.9455 116.18 82.0881 116.18 80.7655C116.18 79.4428 117.037 78.6024 118.205 78.6024ZM118.298 79.0762C117.409 79.0762 116.73 79.6938 116.73 80.7683C116.73 81.8343 117.409 82.4773 118.298 82.4773C119.163 82.4773 119.866 81.8287 119.866 80.7767C119.866 79.7248 119.163 79.0762 118.298 79.0762Z" fill="#1D6D43"/>
<path d="M122.852 81.9902H123.456L122.661 84.0151H122.283L122.852 81.9902Z" fill="#1D6D43"/>
<path d="M131.255 78.6024C132.414 78.6024 133.262 79.4456 133.262 80.7655C133.262 82.0853 132.405 82.9455 131.255 82.9455C130.411 82.9455 129.833 82.5055 129.576 81.9556V82.8834H129.043V77.1641H129.576V79.5979C129.839 79.0451 130.428 78.6024 131.255 78.6024ZM131.147 79.0762C130.29 79.0762 129.579 79.7248 129.579 80.7767C129.579 81.8287 130.29 82.4773 131.147 82.4773C132.036 82.4773 132.715 81.8343 132.715 80.7683C132.715 79.6938 132.036 79.0762 131.147 79.0762Z" fill="#1D6D43"/>
<path d="M137.399 82.9486C136.201 82.9486 135.329 82.1138 135.329 80.777C135.329 79.4318 136.187 78.6055 137.399 78.6055C138.635 78.6055 139.393 79.4854 139.393 80.5599C139.393 80.7291 139.393 80.8391 139.376 80.9857H135.876C135.922 81.9756 136.61 82.4917 137.399 82.4917C138.119 82.4917 138.604 82.1138 138.759 81.5498H139.331C139.139 82.3451 138.46 82.9486 137.399 82.9486ZM135.876 80.5429H138.843C138.866 79.5615 138.155 79.068 137.374 79.068C136.613 79.068 135.939 79.5615 135.876 80.5429Z" fill="#1D6D43"/>
<path d="M143.469 78.6035C144.318 78.6035 144.899 79.0604 145.138 79.5934V78.6656H145.68V82.8846H145.138V81.9483C144.89 82.4898 144.304 82.9466 143.46 82.9466C142.31 82.9466 141.452 82.0893 141.452 80.7666C141.452 79.4439 142.31 78.6035 143.469 78.6035ZM143.568 79.0773C142.679 79.0773 141.999 79.6949 141.999 80.7694C141.999 81.8355 142.679 82.4785 143.568 82.4785C144.433 82.4785 145.136 81.8298 145.136 80.7779C145.138 79.726 144.433 79.0773 143.568 79.0773Z" fill="#1D6D43"/>
<path d="M151.883 82.887H151.342V82.1453C151.085 82.6783 150.53 82.9575 149.904 82.9575C148.945 82.9575 148.189 82.3709 148.189 81.1328V78.668H148.722V81.0708C148.722 82.0071 149.232 82.4865 150.005 82.4865C150.792 82.4865 151.342 81.993 151.342 80.9636V78.668H151.883V82.887Z" fill="#1D6D43"/>
<path d="M154.591 79.1219H154.004V78.665H154.591V77.6074H155.141V78.665H156.3V79.1219H155.141V81.7418C155.141 82.2608 155.319 82.4215 155.807 82.4215H156.3V82.884H155.719C154.986 82.884 154.591 82.5823 154.591 81.739V79.1219Z" fill="#1D6D43"/>
<path d="M158.379 77.4671C158.379 77.2358 158.557 77.0723 158.774 77.0723C158.991 77.0723 159.169 77.2358 159.169 77.4671C159.169 77.6984 158.991 77.8704 158.774 77.8704C158.557 77.8704 158.379 77.7012 158.379 77.4671ZM158.503 78.6657H159.045V82.8847H158.503V78.6657Z" fill="#1D6D43"/>
<path d="M161.726 79.1221H161.14V78.6652H161.726V78.3719C161.726 77.4666 162.152 77.0352 163.218 77.0352V77.4977C162.499 77.4977 162.268 77.7599 162.268 78.3719V78.6652H163.249V79.1221H162.268V82.8871H161.726V79.1221Z" fill="#1D6D43"/>
<path d="M169.07 82.887H168.528V82.1453C168.272 82.6783 167.716 82.9575 167.09 82.9575C166.131 82.9575 165.375 82.3709 165.375 81.1328V78.668H165.909V81.0708C165.909 82.0071 166.419 82.4865 167.192 82.4865C167.979 82.4865 168.528 81.993 168.528 80.9636V78.668H169.07V82.887Z" fill="#1D6D43"/>
<path d="M171.623 77.168H172.165V82.8873H171.623V77.168Z" fill="#1D6D43"/>
<path d="M174.705 77.168H175.247V82.8873H174.705V77.168Z" fill="#1D6D43"/>
<path d="M180.712 78.6641H181.268L178.763 84.8713H178.199L179.017 82.8633L177.285 78.6669H177.88L179.319 82.2683L180.712 78.6641Z" fill="#1D6D43"/>
<path d="M189.672 78.6641H190.227L187.723 84.8713H187.159L187.977 82.8633L186.245 78.6669H186.84L188.279 82.2683L189.672 78.6641Z" fill="#1D6D43"/>
<path d="M194.125 82.9486C192.935 82.9486 192.03 82.1138 192.03 80.777C192.03 79.4318 192.958 78.6055 194.139 78.6055C195.329 78.6055 196.249 79.4318 196.249 80.777C196.249 82.1138 195.315 82.9486 194.125 82.9486ZM194.125 82.4748C194.921 82.4748 195.693 81.9333 195.693 80.7742C195.693 79.6151 194.937 79.0736 194.131 79.0736C193.327 79.0736 192.577 79.6151 192.577 80.7742C192.58 81.9361 193.321 82.4748 194.125 82.4748Z" fill="#1D6D43"/>
<path d="M202.211 82.887H201.669V82.1453C201.413 82.6783 200.857 82.9575 200.231 82.9575C199.272 82.9575 198.516 82.3709 198.516 81.1328V78.668H199.049V81.0708C199.049 82.0071 199.56 82.4865 200.333 82.4865C201.119 82.4865 201.669 81.993 201.669 80.9636V78.668H202.211V82.887Z" fill="#1D6D43"/>
<path d="M25.348 48.1357C21.3461 41.1782 18.8672 36.1272 18.8672 31.4598C18.8672 27.5538 20.6777 25.3597 23.4415 25.3597C26.3012 25.3597 26.682 27.6469 26.1094 29.3616C25.348 31.9336 27.0627 34.1277 30.9687 33.5552C36.3045 32.8868 38.5917 28.1235 38.5917 22.5C38.5917 9.73012 26.4902 3.15623 18.1988 3.15623H17.1525V68.5285H0V1.82227H26.6819C37.0688 1.82227 56.2236 8.39616 56.2236 25.6473C56.2236 38.1324 46.2175 41.4659 39.9284 41.4659C34.4967 41.4659 27.3503 38.9869 25.0631 32.8896C24.5865 31.4598 24.3948 30.0299 22.6801 30.0299C22.6801 30.0299 20.297 30.0299 20.297 32.3171C20.1081 40.4168 48.7895 46.8976 56.5084 68.5285H37.1646L25.348 48.1357Z" fill="#1D6D43"/>
<path d="M139.037 18.4941C124.552 18.4941 115.118 28.4072 115.118 43.4614C115.118 58.5185 124.552 68.5274 139.037 68.5274C153.521 68.5274 162.955 58.5185 162.955 43.4614C162.955 28.41 153.518 18.4941 139.037 18.4941ZM146.66 65.9525C140.943 67.7631 125.485 66.3502 121.673 55.3965C117.767 44.0565 125.311 22.6906 131.027 20.9759C136.936 19.2584 143.227 30.5054 146.944 41.2729C150.85 52.706 152.187 64.3309 146.66 65.9525Z" fill="#1D6D43"/>
<path d="M61.3682 43.4614C61.3682 58.5185 70.8017 68.5274 85.2863 68.5274C99.7709 68.5274 109.204 58.5185 109.204 43.4614C109.204 28.41 99.7709 18.4941 85.2863 18.4941C70.8046 18.4941 61.3682 28.41 61.3682 43.4614ZM77.3813 41.2701C81.0983 30.5026 87.3902 19.2584 93.2985 20.9731C99.0151 22.6906 106.559 44.0537 102.653 55.3937C98.8402 66.3502 83.3855 67.7631 77.6661 65.9497C72.1357 64.3309 73.4725 52.706 77.3813 41.2701Z" fill="#1D6D43"/>
<path d="M186.108 19.0589V0H170.862V19.0589H166.135V23.4077H170.862V53.5557C170.862 68.2348 182.487 68.6127 186.015 68.5197C190.189 68.3307 192.891 67.0137 194.938 65.0029C194.628 64.546 194.354 64.0807 194.112 63.6181C192.953 64.6334 191.585 65.378 189.921 65.378C186.968 65.4738 186.108 63.088 186.108 60.1352V23.4077H195.023C195.739 21.834 196.718 20.4014 197.944 19.1323V19.0589H186.108Z" fill="#1D6D43"/>
<path d="M230.135 35.5545C221.463 30.9801 211.366 27.7425 211.265 23.0722C211.169 21.4506 212.413 20.1195 215.461 20.1195C222.323 20.1195 229.946 27.2631 234.52 33.8398L242.524 26.8851C236.807 21.4506 226.993 18.5938 218.51 18.5938C211.933 18.5938 199.93 20.3113 199.93 30.2243C199.93 34.8889 202.5 38.228 206.6 41.3697C209.364 43.5638 211.84 44.9909 208.696 45.5662C207.742 45.7551 198.591 47.4726 198.591 56.0489C198.591 66.4301 211.933 68.5311 221.942 68.5311C226.705 68.5311 242.907 68.0517 243.001 51.7565C243.003 45.1798 240.333 40.8931 230.135 35.5545ZM237.095 60.8094C229.376 60.8094 208.696 50.6115 208.501 47.467C208.405 46.3192 210.98 46.8945 211.744 45.9413C212.029 45.5634 212.122 44.988 211.364 44.1307C211.073 43.8459 210.98 43.6569 213.075 44.7991C226.229 51.8496 239.952 54.4244 239.952 58.9988C239.955 60.2369 238.9 60.8094 237.095 60.8094Z" fill="#1D6D43"/>
<path d="M230.135 35.5545C221.463 30.9801 211.366 27.7425 211.265 23.0722C211.169 21.4506 212.413 20.1195 215.461 20.1195C222.323 20.1195 229.946 27.2631 234.52 33.8398L242.524 26.8851C236.807 21.4506 226.993 18.5938 218.51 18.5938C211.933 18.5938 199.93 20.3113 199.93 30.2243C199.93 34.8889 202.5 38.228 206.6 41.3697C209.364 43.5638 211.84 44.9909 208.696 45.5662C207.742 45.7551 198.591 47.4726 198.591 56.0489C198.591 66.4301 211.933 68.5311 221.942 68.5311C226.705 68.5311 242.907 68.0517 243.001 51.7565C243.003 45.1798 240.333 40.8931 230.135 35.5545ZM237.095 60.8094C229.376 60.8094 208.696 50.6115 208.501 47.467C208.405 46.3192 210.98 46.8945 211.744 45.9413C212.029 45.5634 212.122 44.988 211.364 44.1307C211.073 43.8459 210.98 43.6569 213.075 44.7991C226.229 51.8496 239.952 54.4244 239.952 58.9988C239.955 60.2369 238.9 60.8094 237.095 60.8094Z" fill="#1D6D43"/>
</svg>
