<svg width="46" height="33" viewBox="0 0 46 33" fill="none" xmlns="http://www.w3.org/2000/svg">
<rect x="0.416667" y="1.1901" width="45.1667" height="31.1667" rx="4.58333" fill="white" stroke="#D9D9D9" stroke-width="0.833333"/>
<path d="M36.1406 19.8643H36.1641L38.082 14.9805H39.4307L35.2852 24.7725H34.0068L35.5479 21.3477L32.8281 14.9805H34.1768L36.1406 19.8643ZM29.6514 14.7617C30.5681 14.7617 31.2927 15.0151 31.8242 15.5146C32.3557 16.0142 32.6172 16.7127 32.6172 17.5928V21.7871H31.4307V20.8438H31.377C30.8609 21.6205 30.183 22.0087 29.3281 22.0088C28.604 22.0088 27.9873 21.7868 27.502 21.3428C27.0244 20.9305 26.7551 20.32 26.7705 19.6777C26.7705 18.9722 27.032 18.4173 27.5479 17.9971C28.0639 17.5769 28.7575 17.3702 29.6201 17.3701C30.3595 17.3701 30.9609 17.5128 31.4385 17.7822V17.4893C31.4385 17.0533 31.254 16.6409 30.9307 16.3555C30.5995 16.0542 30.1754 15.8878 29.7363 15.8877C29.043 15.8877 28.4953 16.1894 28.0947 16.792L27.001 16.0859C27.5865 15.2058 28.4727 14.7617 29.6514 14.7617ZM23.9219 11.8447C24.6626 11.8676 25.3731 12.1737 25.9004 12.709C27.0248 13.7874 27.0944 15.6031 26.0391 16.7686L25.9004 16.9111C25.3226 17.4741 24.6131 17.7598 23.7734 17.7598H21.7246V21.7871H20.4844V11.8447H23.9219ZM29.8115 18.4004C29.3107 18.4004 28.8869 18.5277 28.5479 18.7734C28.2165 19.0192 28.0469 19.3285 28.0469 19.7012C28.0469 20.034 28.201 20.3429 28.4551 20.5332C28.7324 20.7551 29.0714 20.874 29.418 20.8662C29.9419 20.8662 30.4427 20.6521 30.8125 20.2715C31.2209 19.875 31.4297 19.4073 31.4297 18.8682C31.0445 18.551 30.5049 18.3925 29.8115 18.4004ZM21.7227 16.5371H23.8027C24.265 16.553 24.7124 16.3633 25.0283 16.0225C25.6755 15.3326 25.6596 14.2217 24.9893 13.5557C24.6734 13.2387 24.2495 13.0645 23.8027 13.0645H21.7227V16.5371Z" fill="#3C4043"/>
<path d="M17.4483 16.8842C17.4483 16.4957 17.4175 16.1072 17.3559 15.7266H12.125V17.9229H15.1218C14.9985 18.6286 14.5979 19.2629 14.0124 19.6594V21.0866H15.7997C16.8474 20.0954 17.4483 18.6286 17.4483 16.8842Z" fill="#4285F4"/>
<path d="M12.1215 22.4662C13.616 22.4662 14.8794 21.9588 15.7962 21.0866L14.0089 19.6594C13.5082 20.0083 12.8688 20.2065 12.1215 20.2065C10.6732 20.2065 9.44828 19.1995 9.00917 17.8516H7.16797V19.3264C8.10783 21.2531 10.0261 22.4662 12.1215 22.4662Z" fill="#34A853"/>
<path d="M9.01092 17.8525C8.77977 17.1469 8.77977 16.3777 9.01092 15.6641V14.1973H7.16943C6.37582 15.8069 6.37582 17.7098 7.16943 19.3194L9.01092 17.8525Z" fill="#FBBC04"/>
<path d="M12.1215 13.3089C12.915 13.2931 13.6776 13.6023 14.2477 14.1653L15.8347 12.5319C14.8255 11.5646 13.5005 11.0333 12.1215 11.0492C10.0261 11.0492 8.10783 12.2702 7.16797 14.197L9.00917 15.6718C9.44828 14.3159 10.6732 13.3089 12.1215 13.3089Z" fill="#EA4335"/>
</svg>
