<svg width="56" height="56" viewBox="0 0 56 56" fill="none" xmlns="http://www.w3.org/2000/svg">
<rect x="0.5" y="0.5" width="55" height="55" rx="27.5" fill="#FFC801"/>
<rect x="0.5" y="0.5" width="55" height="55" rx="27.5" stroke="#FFE380"/>
<rect x="14" y="14" width="28" height="28" rx="14" fill="#21201E"/>
<path d="M28.0027 21.1137C30.2472 21.1137 30.5107 21.1237 31.3978 21.1638C32.2182 21.2005 32.6618 21.3372 32.9586 21.4539C33.3522 21.6073 33.6323 21.7874 33.9258 22.0809C34.2193 22.3744 34.4027 22.6546 34.5528 23.0481C34.6662 23.3449 34.8063 23.7885 34.843 24.6089C34.883 25.4961 34.893 25.7595 34.893 28.0041C34.893 30.2486 34.883 30.512 34.843 31.3992C34.8063 32.2196 34.6695 32.6632 34.5528 32.96C34.3994 33.3536 34.2193 33.6337 33.9258 33.9272C33.6323 34.2207 33.3522 34.4041 32.9586 34.5542C32.6618 34.6676 32.2182 34.8077 31.3978 34.8443C30.5107 34.8844 30.2472 34.8944 28.0027 34.8944C25.7582 34.8944 25.4947 34.8844 24.6075 34.8443C23.7871 34.8077 23.3435 34.6709 23.0467 34.5542C22.6532 34.4008 22.373 34.2207 22.0795 33.9272C21.7861 33.6337 21.6026 33.3536 21.4525 32.96C21.3391 32.6632 21.1991 32.2196 21.1624 31.3992C21.1224 30.512 21.1124 30.2486 21.1124 28.0041C21.1124 25.7595 21.1224 25.4961 21.1624 24.6089C21.1991 23.7885 21.3358 23.3449 21.4525 23.0481C21.606 22.6546 21.7861 22.3744 22.0795 22.0809C22.373 21.7874 22.6532 21.604 23.0467 21.4539C23.3435 21.3405 23.7871 21.2005 24.6075 21.1638C25.4947 21.1204 25.7615 21.1137 28.0027 21.1137ZM28.0027 19.5996C25.7215 19.5996 25.4347 19.6096 24.5375 19.6496C23.6437 19.6897 23.0334 19.8331 22.4998 20.0398C21.9461 20.2533 21.4792 20.5434 21.0123 21.0104C20.5454 21.4773 20.2586 21.9475 20.0418 22.4978C19.835 23.0314 19.6916 23.6417 19.6516 24.5389C19.6116 25.4327 19.6016 25.7195 19.6016 28.0007C19.6016 30.2819 19.6116 30.5687 19.6516 31.4659C19.6916 32.3597 19.835 32.97 20.0418 33.507C20.2552 34.0606 20.5454 34.5275 21.0123 34.9944C21.4792 35.4613 21.9495 35.7482 22.4998 35.9649C23.0334 36.1717 23.6437 36.3151 24.5408 36.3551C25.438 36.3952 25.7215 36.4052 28.006 36.4052C30.2906 36.4052 30.574 36.3952 31.4712 36.3551C32.365 36.3151 32.9753 36.1717 33.5123 35.9649C34.0659 35.7515 34.5328 35.4613 34.9997 34.9944C35.4666 34.5275 35.7535 34.0573 35.9702 33.507C36.177 32.9734 36.3204 32.363 36.3604 31.4659C36.4005 30.5687 36.4105 30.2853 36.4105 28.0007C36.4105 25.7162 36.4005 25.4327 36.3604 24.5356C36.3204 23.6417 36.177 23.0314 35.9702 22.4945C35.7568 21.9408 35.4666 21.4739 34.9997 21.007C34.5328 20.5401 34.0626 20.2533 33.5123 20.0365C32.9786 19.8297 32.3683 19.6863 31.4712 19.6463C30.5707 19.6096 30.2839 19.5996 28.0027 19.5996Z" fill="#FFC801"/>
<path d="M28.0021 23.6895C25.6209 23.6895 23.6865 25.6205 23.6865 28.0051C23.6865 30.3897 25.6175 32.3207 28.0021 32.3207C30.3867 32.3207 32.3178 30.3897 32.3178 28.0051C32.3178 25.6205 30.3867 23.6895 28.0021 23.6895ZM28.0021 30.8032C26.4547 30.8032 25.2007 29.5492 25.2007 28.0017C25.2007 26.4542 26.4547 25.2003 28.0021 25.2003C29.5496 25.2003 30.8036 26.4542 30.8036 28.0017C30.8036 29.5492 29.5496 30.8032 28.0021 30.8032Z" fill="#FFC801"/>
<path d="M32.4877 24.5222C33.0439 24.5222 33.4949 24.0713 33.4949 23.515C33.4949 22.9588 33.0439 22.5078 32.4877 22.5078C31.9314 22.5078 31.4805 22.9588 31.4805 23.515C31.4805 24.0713 31.9314 24.5222 32.4877 24.5222Z" fill="#FFC801"/>
</svg>
