<svg width="16" height="16" viewBox="0 0 16 16" fill="none" xmlns="http://www.w3.org/2000/svg">
<path d="M8.00327 6.00065C7.47284 6.00065 6.96413 6.21136 6.58906 6.58644C6.21398 6.96151 6.00327 7.47022 6.00327 8.00065C6.00327 8.53108 6.21398 9.03979 6.58906 9.41487C6.96413 9.78994 7.47284 10.0007 8.00327 10.0007C8.5337 10.0007 9.04241 9.78994 9.41748 9.41487C9.79256 9.03979 10.0033 8.53108 10.0033 8.00065C10.0033 7.47022 9.79256 6.96151 9.41748 6.58644C9.04241 6.21136 8.5337 6.00065 8.00327 6.00065ZM8.00327 4.66732C8.88733 4.66732 9.73517 5.01851 10.3603 5.64363C10.9854 6.26875 11.3366 7.1166 11.3366 8.00065C11.3366 8.88471 10.9854 9.73255 10.3603 10.3577C9.73517 10.9828 8.88733 11.334 8.00327 11.334C7.11922 11.334 6.27137 10.9828 5.64625 10.3577C5.02113 9.73255 4.66994 8.88471 4.66994 8.00065C4.66994 7.1166 5.02113 6.26875 5.64625 5.64363C6.27137 5.01851 7.11922 4.66732 8.00327 4.66732ZM12.3366 4.50065C12.3366 4.72166 12.2488 4.93363 12.0925 5.08991C11.9362 5.24619 11.7243 5.33398 11.5033 5.33398C11.2823 5.33398 11.0703 5.24619 10.914 5.08991C10.7577 4.93363 10.6699 4.72166 10.6699 4.50065C10.6699 4.27964 10.7577 4.06768 10.914 3.9114C11.0703 3.75512 11.2823 3.66732 11.5033 3.66732C11.7243 3.66732 11.9362 3.75512 12.0925 3.9114C12.2488 4.06768 12.3366 4.27964 12.3366 4.50065ZM8.00327 2.66732C6.35394 2.66732 6.0846 2.67198 5.31727 2.70598C4.7946 2.73065 4.44394 2.80065 4.1186 2.92732C3.84635 3.02728 3.60021 3.18749 3.3986 3.39598C3.18994 3.59758 3.02951 3.84371 2.92927 4.11598C2.8026 4.44265 2.7326 4.79265 2.7086 5.31465C2.67394 6.05065 2.66927 6.30798 2.66927 8.00065C2.66927 9.65065 2.67394 9.91932 2.70794 10.6867C2.7326 11.2087 2.8026 11.56 2.9286 11.8847C3.04194 12.1747 3.17527 12.3833 3.3966 12.6047C3.62127 12.8287 3.82994 12.9627 4.1166 13.0733C4.44594 13.2007 4.7966 13.2713 5.3166 13.2953C6.0526 13.33 6.30994 13.334 8.0026 13.334C9.6526 13.334 9.92127 13.3293 10.6886 13.2953C11.2099 13.2707 11.5606 13.2007 11.8866 13.0747C12.1586 12.9742 12.4046 12.8141 12.6066 12.606C12.8313 12.382 12.9653 12.1733 13.0759 11.886C13.2026 11.558 13.2733 11.2073 13.2973 10.686C13.3319 9.95065 13.3359 9.69265 13.3359 8.00065C13.3359 6.35132 13.3313 6.08198 13.2973 5.31465C13.2726 4.79332 13.2019 4.44132 13.0759 4.11598C12.9754 3.844 12.8153 3.59797 12.6073 3.39598C12.4058 3.18722 12.1596 3.02676 11.8873 2.92665C11.5606 2.79998 11.2099 2.72998 10.6886 2.70598C9.95327 2.67132 9.69594 2.66732 8.0026 2.66732M8.0026 1.33398C9.81394 1.33398 10.0399 1.34065 10.7513 1.37398C11.4606 1.40732 11.9446 1.51865 12.3693 1.68398C12.8093 1.85332 13.1799 2.08265 13.5506 2.45265C13.8896 2.78592 14.1519 3.18904 14.3193 3.63398C14.4839 4.05865 14.5959 4.54265 14.6293 5.25265C14.6606 5.96332 14.6693 6.18932 14.6693 8.00065C14.6693 9.81199 14.6626 10.038 14.6293 10.7487C14.5959 11.4587 14.4839 11.942 14.3193 12.3673C14.1524 12.8125 13.89 13.2157 13.5506 13.5487C13.2172 13.8875 12.8141 14.1498 12.3693 14.3173C11.9446 14.482 11.4606 14.594 10.7513 14.6273C10.0399 14.6587 9.81394 14.6673 8.0026 14.6673C6.19127 14.6673 5.96527 14.6607 5.25394 14.6273C4.5446 14.594 4.06127 14.482 3.63594 14.3173C3.19082 14.1503 2.78762 13.8879 2.4546 13.5487C2.11556 13.2154 1.85324 12.8123 1.68594 12.3673C1.5206 11.9427 1.40927 11.4587 1.37594 10.7487C1.34394 10.038 1.33594 9.81199 1.33594 8.00065C1.33594 6.18932 1.3426 5.96332 1.37594 5.25265C1.40927 4.54265 1.5206 4.05932 1.68594 3.63398C1.85276 3.18877 2.11514 2.78553 2.4546 2.45265C2.78772 2.11347 3.19089 1.85114 3.63594 1.68398C4.0606 1.51865 4.54394 1.40732 5.25394 1.37398C5.96594 1.34265 6.19194 1.33398 8.00327 1.33398" fill="#082013"/>
</svg>
