<svg width="28" height="28" viewBox="0 0 28 28" fill="none" xmlns="http://www.w3.org/2000/svg">
<rect width="28" height="28" rx="14" fill="#21201E"/>
<path d="M14.0027 7.11374C16.2472 7.11374 16.5107 7.12375 17.3978 7.16377C18.2182 7.20046 18.6618 7.3372 18.9586 7.45392C19.3522 7.60734 19.6323 7.78743 19.9258 8.08092C20.2193 8.37441 20.4027 8.65456 20.5528 9.0481C20.6662 9.34492 20.8063 9.78849 20.843 10.6089C20.883 11.4961 20.893 11.7595 20.893 14.0041C20.893 16.2486 20.883 16.512 20.843 17.3992C20.8063 18.2196 20.6695 18.6632 20.5528 18.96C20.3994 19.3536 20.2193 19.6337 19.9258 19.9272C19.6323 20.2207 19.3522 20.4041 18.9586 20.5542C18.6618 20.6676 18.2182 20.8077 17.3978 20.8443C16.5107 20.8844 16.2472 20.8944 14.0027 20.8944C11.7582 20.8944 11.4947 20.8844 10.6075 20.8443C9.78711 20.8077 9.34354 20.6709 9.04672 20.5542C8.65318 20.4008 8.37303 20.2207 8.07954 19.9272C7.78605 19.6337 7.60262 19.3536 7.45254 18.96C7.33915 18.6632 7.19908 18.2196 7.16239 17.3992C7.12237 16.512 7.11236 16.2486 7.11236 14.0041C7.11236 11.7595 7.12237 11.4961 7.16239 10.6089C7.19908 9.78849 7.33581 9.34492 7.45254 9.0481C7.60596 8.65456 7.78605 8.37441 8.07954 8.08092C8.37303 7.78743 8.65318 7.604 9.04672 7.45392C9.34354 7.34053 9.78711 7.20046 10.6075 7.16377C11.4947 7.12041 11.7615 7.11374 14.0027 7.11374ZM14.0027 5.59961C11.7215 5.59961 11.4347 5.60961 10.5375 5.64964C9.6437 5.68966 9.03338 5.83307 8.49976 6.03984C7.94614 6.25329 7.47922 6.54344 7.01231 7.01036C6.5454 7.47727 6.25858 7.94752 6.0418 8.49781C5.83502 9.03142 5.69161 9.64175 5.65159 10.5389C5.61157 11.4327 5.60156 11.7195 5.60156 14.0007C5.60156 16.2819 5.61157 16.5687 5.65159 17.4659C5.69161 18.3597 5.83502 18.97 6.0418 19.507C6.25524 20.0606 6.5454 20.5275 7.01231 20.9944C7.47922 21.4613 7.94947 21.7482 8.49976 21.9649C9.03338 22.1717 9.6437 22.3151 10.5408 22.3551C11.438 22.3952 11.7215 22.4052 14.006 22.4052C16.2906 22.4052 16.574 22.3952 17.4712 22.3551C18.365 22.3151 18.9753 22.1717 19.5123 21.9649C20.0659 21.7515 20.5328 21.4613 20.9997 20.9944C21.4666 20.5275 21.7535 20.0573 21.9702 19.507C22.177 18.9734 22.3204 18.363 22.3604 17.4659C22.4005 16.5687 22.4105 16.2853 22.4105 14.0007C22.4105 11.7162 22.4005 11.4327 22.3604 10.5356C22.3204 9.64175 22.177 9.03142 21.9702 8.49447C21.7568 7.94085 21.4666 7.47393 20.9997 7.00702C20.5328 6.54011 20.0626 6.25329 19.5123 6.03651C18.9786 5.82973 18.3683 5.68632 17.4712 5.6463C16.5707 5.60961 16.2839 5.59961 14.0027 5.59961Z" fill="#FFC801"/>
<path d="M14.0021 9.68945C11.6209 9.68945 9.68652 11.6205 9.68652 14.0051C9.68652 16.3897 11.6175 18.3207 14.0021 18.3207C16.3867 18.3207 18.3178 16.3897 18.3178 14.0051C18.3178 11.6205 16.3867 9.68945 14.0021 9.68945ZM14.0021 16.8032C12.4547 16.8032 11.2007 15.5492 11.2007 14.0017C11.2007 12.4542 12.4547 11.2003 14.0021 11.2003C15.5496 11.2003 16.8036 12.4542 16.8036 14.0017C16.8036 15.5492 15.5496 16.8032 14.0021 16.8032Z" fill="#FFC801"/>
<path d="M18.4877 10.5222C19.0439 10.5222 19.4949 10.0713 19.4949 9.51501C19.4949 8.95875 19.0439 8.50781 18.4877 8.50781C17.9314 8.50781 17.4805 8.95875 17.4805 9.51501C17.4805 10.0713 17.9314 10.5222 18.4877 10.5222Z" fill="#FFC801"/>
</svg>
