<svg width="28" height="28" viewBox="0 0 28 28" fill="none" xmlns="http://www.w3.org/2000/svg">
<path d="M12.832 23.334C10.7835 23.3402 8.80734 22.5762 7.29565 21.1936C5.78396 19.811 4.84711 17.9108 4.67091 15.8698C4.4947 13.8288 5.09202 11.7961 6.34439 10.1748C7.59676 8.55363 9.4127 7.4623 11.432 7.11732C18.082 5.83398 19.832 5.22732 22.1654 2.33398C23.332 4.66732 24.4987 7.21065 24.4987 11.6673C24.4987 18.084 18.922 23.334 12.832 23.334Z" stroke="#103C25" stroke-width="1.5" stroke-linecap="round" stroke-linejoin="round"/>
<path d="M2.33203 24.5C2.33203 21 4.49036 18.2467 8.2587 17.5C11.082 16.94 13.9987 15.1667 15.1654 14" stroke="#103C25" stroke-width="1.5" stroke-linecap="round" stroke-linejoin="round"/>
</svg>
