<svg width="28" height="28" viewBox="0 0 28 28" fill="none" xmlns="http://www.w3.org/2000/svg">
<path d="M23.3346 12.8333C23.3346 18.6203 17.8994 23.0485 15.3243 24.8217C14.9282 25.0944 14.7302 25.2308 14.4193 25.3073C14.1863 25.3646 13.8163 25.3646 13.5833 25.3073C13.2724 25.2308 13.0744 25.0944 12.6783 24.8217C10.1032 23.0485 4.66797 18.6203 4.66797 12.8333C4.66797 7.67868 8.84664 3.5 14.0013 3.5C19.156 3.5 23.3346 7.67868 23.3346 12.8333Z" stroke="#103C25" stroke-width="1.5" stroke-linecap="round" stroke-linejoin="round"/>
<path d="M17.0328 12.8334C17.0328 14.5077 15.6756 15.8649 14.0013 15.8649C12.327 15.8649 10.9698 14.5077 10.9698 12.8334C10.9698 11.1591 12.327 9.80188 14.0013 9.80188C15.6756 9.80188 17.0328 11.1591 17.0328 12.8334Z" stroke="#103C25" stroke-width="1.5" stroke-linecap="round" stroke-linejoin="round"/>
</svg>
