<svg width="28" height="28" viewBox="0 0 28 28" fill="none" xmlns="http://www.w3.org/2000/svg">
<path fill-rule="evenodd" clip-rule="evenodd" d="M14.136 5.96185C14.0913 6.013 14.069 6.03858 14.0443 6.04734C14.022 6.05525 13.9997 6.05525 13.9774 6.04735C13.9527 6.03859 13.9304 6.01302 13.8857 5.96189C11.5449 3.28156 7.74699 2.59901 4.88082 5.11895C1.96301 7.68429 1.55222 11.9734 3.8436 15.0075C5.48527 17.1812 9.99353 21.4325 12.4181 23.6685C12.9691 24.1766 13.2445 24.4307 13.5704 24.5308C13.8525 24.6174 14.1692 24.6174 14.4512 24.5308C14.7771 24.4307 15.0526 24.1766 15.6036 23.6685C18.0281 21.4325 22.5364 17.1812 24.1781 15.0075C26.4695 11.9734 26.1088 7.65731 23.1409 5.11895C20.2254 2.62554 16.4751 3.28249 14.136 5.96185Z" stroke="#103C25" stroke-width="1.5" stroke-linecap="round"/>
</svg>
