<svg width="46" height="33" viewBox="0 0 46 33" fill="none" xmlns="http://www.w3.org/2000/svg">
<rect x="0.416667" y="1.1901" width="45.1667" height="31.1667" rx="4.58333" fill="white" stroke="#D9D9D9" stroke-width="0.833333"/>
<path d="M29.1445 7.44141C34.0975 7.44161 38.1123 11.5624 38.1123 16.6455C38.1122 21.7285 34.0974 25.8494 29.1445 25.8496C26.9241 25.8496 24.8934 25.0192 23.3271 23.6475C21.7611 25.0188 19.7317 25.8495 17.5117 25.8496C12.5587 25.8496 8.54303 21.7287 8.54297 16.6455C8.54297 11.5623 12.5586 7.44141 17.5117 7.44141C19.7313 7.4415 21.7612 8.27071 23.3271 9.6416C24.8933 8.27027 26.9245 7.44141 29.1445 7.44141Z" fill="#ED0006"/>
<path d="M29.144 7.44141C34.0971 7.44141 38.1128 11.5623 38.1128 16.6455C38.1127 21.7287 34.0971 25.8496 29.144 25.8496C26.924 25.8496 24.8938 25.0198 23.3276 23.6484C25.2556 21.9603 26.4799 19.4503 26.48 16.6455C26.48 13.8405 25.2558 11.3298 23.3276 9.6416C24.8937 8.27045 26.9241 7.44141 29.144 7.44141Z" fill="#F9A000"/>
<path d="M23.3271 9.64258C25.2553 11.3308 26.4795 13.8406 26.4795 16.6455C26.4795 19.4502 25.255 21.9593 23.3271 23.6475C21.3997 21.9593 20.1758 19.4499 20.1758 16.6455C20.1758 13.8409 21.3994 11.3308 23.3271 9.64258Z" fill="#FF5E00"/>
</svg>
