<svg width="46" height="33" viewBox="0 0 46 33" fill="none" xmlns="http://www.w3.org/2000/svg">
<rect x="0.416667" y="1.1901" width="45.1667" height="31.1667" rx="4.58333" fill="white" stroke="#D9D9D9" stroke-width="0.833333"/>
<path fill-rule="evenodd" clip-rule="evenodd" d="M13.0098 21.0957H10.9652C10.8253 21.0957 10.7063 21.1989 10.6845 21.3389L9.85761 26.6577C9.84118 26.7627 9.92129 26.8573 10.0262 26.8573H11.0023C11.1422 26.8573 11.2612 26.7541 11.283 26.6138L11.5061 25.1792C11.5276 25.0387 11.6468 24.9357 11.7865 24.9357H12.4337C13.7805 24.9357 14.5577 24.2745 14.7608 22.9643C14.8523 22.3911 14.7647 21.9408 14.5 21.6252C14.2095 21.279 13.694 21.0957 13.0098 21.0957ZM13.2456 23.0383C13.1339 23.7826 12.5733 23.7826 12.0313 23.7826H11.7228L11.9392 22.3925C11.9521 22.3086 12.0238 22.2467 12.1075 22.2467H12.2489C12.6181 22.2467 12.9665 22.2467 13.1464 22.4602C13.2537 22.5876 13.2866 22.7768 13.2456 23.0383ZM19.1213 23.0144H18.1423C18.0588 23.0144 17.9868 23.0763 17.9739 23.1604L17.9306 23.4382L17.8621 23.3375C17.6502 23.0254 17.1776 22.9211 16.7058 22.9211C15.6238 22.9211 14.6998 23.7524 14.5198 24.9186C14.4263 25.5002 14.5592 26.0564 14.8845 26.4443C15.1829 26.801 15.6098 26.9496 16.1177 26.9496C16.9894 26.9496 17.4729 26.3809 17.4729 26.3809L17.4292 26.657C17.4128 26.7625 17.4929 26.8571 17.5972 26.8571H18.4791C18.6194 26.8571 18.7377 26.754 18.7598 26.6136L19.289 23.214C19.3058 23.1095 19.2259 23.0144 19.1213 23.0144ZM17.7566 24.9476C17.6621 25.5151 17.2181 25.896 16.652 25.896C16.3677 25.896 16.1404 25.8035 15.9946 25.6282C15.8499 25.4542 15.7948 25.2063 15.8409 24.9304C15.9291 24.3677 16.3806 23.9744 16.9381 23.9744C17.216 23.9744 17.4421 24.0681 17.591 24.2449C17.7401 24.4236 17.7993 24.6728 17.7566 24.9476ZM23.3518 23.0143H24.3358C24.4735 23.0143 24.5539 23.1711 24.4756 23.2857L21.2033 28.0776C21.1503 28.1552 21.063 28.2014 20.9698 28.2014H19.9871C19.8488 28.2014 19.768 28.0434 19.8481 27.9284L20.867 26.4693L19.7833 23.2429C19.7458 23.1308 19.8275 23.0143 19.9451 23.0143H20.9118C21.0374 23.0143 21.1483 23.098 21.1845 23.2199L21.7596 25.1686L23.1166 23.1408C23.1698 23.0616 23.258 23.0143 23.3518 23.0143Z" fill="#253B80"/>
<path fill-rule="evenodd" clip-rule="evenodd" d="M34.0179 26.656L34.857 21.24C34.8698 21.1559 34.9417 21.094 35.0251 21.0938H35.9697C36.074 21.0938 36.1541 21.1886 36.1377 21.2936L35.3102 26.6121C35.2886 26.7524 35.1696 26.8556 35.0295 26.8556H34.1859C34.0816 26.8556 34.0014 26.761 34.0179 26.656ZM27.5919 21.094H25.547C25.4074 21.094 25.2884 21.1972 25.2665 21.3373L24.4397 26.656C24.4232 26.761 24.5033 26.8556 24.6077 26.8556H25.657C25.7545 26.8556 25.8379 26.7834 25.8531 26.6852L26.0878 25.1775C26.1094 25.0371 26.2286 24.934 26.3682 24.934H27.0151C28.3622 24.934 29.1393 24.2728 29.3425 22.9627C29.4342 22.3895 29.3461 21.9391 29.0816 21.6236C28.7912 21.2773 28.2761 21.094 27.5919 21.094ZM27.8278 23.0366C27.7162 23.7809 27.1557 23.7809 26.6133 23.7809H26.3051L26.5219 22.3909C26.5348 22.3069 26.6059 22.2451 26.6899 22.2451H26.8312C27.2002 22.2451 27.5488 22.2451 27.7287 22.4585C27.8361 22.586 27.8687 22.7752 27.8278 23.0366ZM33.7029 23.0128H32.7245C32.6404 23.0128 32.569 23.0747 32.5564 23.1587L32.5131 23.4365L32.4444 23.3359C32.2324 23.0237 31.7601 22.9194 31.2883 22.9194C30.2063 22.9194 29.2826 23.7507 29.1026 24.9169C29.0094 25.4985 29.1418 26.0547 29.467 26.4427C29.766 26.7993 30.1924 26.9479 30.7002 26.9479C31.572 26.9479 32.0553 26.3792 32.0553 26.3792L32.0118 26.6553C31.9953 26.7609 32.0754 26.8554 32.1804 26.8554H33.0619C33.2015 26.8554 33.3205 26.7523 33.3424 26.6119L33.8718 23.2124C33.888 23.1078 33.8079 23.0128 33.7029 23.0128ZM32.3383 24.946C32.2443 25.5134 31.7998 25.8943 31.2336 25.8943C30.9498 25.8943 30.7221 25.8018 30.5761 25.6265C30.4314 25.4525 30.3771 25.2046 30.4226 24.9287C30.5113 24.366 30.9621 23.9728 31.5197 23.9728C31.7977 23.9728 32.0237 24.0664 32.1727 24.2432C32.3223 24.4219 32.3816 24.6712 32.3383 24.946Z" fill="#179BD7"/>
<path d="M20.5758 19.1919L20.8272 17.5722L20.2673 17.559H17.5938L19.4517 5.60723C19.4574 5.57115 19.4762 5.5375 19.5036 5.51362C19.531 5.48973 19.5662 5.47656 19.6027 5.47656H24.1107C25.6073 5.47656 26.6401 5.79251 27.1793 6.4161C27.4321 6.70865 27.5931 7.01435 27.671 7.35077C27.7526 7.70378 27.7542 8.12552 27.6743 8.63991L27.6685 8.67745V9.00704L27.9214 9.15235C28.1343 9.26692 28.3034 9.39807 28.4332 9.54825C28.6495 9.79837 28.7894 10.1163 28.8485 10.4932C28.9095 10.8808 28.8893 11.342 28.7894 11.8642C28.674 12.4649 28.4875 12.988 28.2358 13.4161C28.004 13.8106 27.7089 14.1377 27.3586 14.3913C27.0241 14.6321 26.6266 14.815 26.1773 14.9321C25.7418 15.047 25.2454 15.1051 24.7009 15.1051H24.35C24.0992 15.1051 23.8554 15.1968 23.6642 15.3611C23.4725 15.5288 23.3455 15.7579 23.3066 16.0085L23.2802 16.1544L22.8361 19.009L22.8159 19.1138C22.8106 19.1471 22.8015 19.1636 22.7881 19.1749C22.7761 19.185 22.7588 19.1919 22.7419 19.1919H20.5758Z" fill="#253B80"/>
<path d="M28.1614 8.7168C28.148 8.80407 28.1326 8.89329 28.1153 8.98495C27.5207 12.0815 25.4869 13.1512 22.8892 13.1512H21.5666C21.2489 13.1512 20.9812 13.3853 20.9317 13.7032L20.2545 18.0601L20.0628 19.2951C20.0305 19.5038 20.1892 19.692 20.3967 19.692H22.7427C23.0205 19.692 23.2563 19.4872 23.3001 19.2093L23.3232 19.0883L23.7649 16.2448L23.7933 16.0889C23.8364 15.81 24.0729 15.6052 24.3507 15.6052H24.7015C26.9743 15.6052 28.7535 14.6691 29.2736 11.9601C29.4908 10.8285 29.3783 9.88355 28.8035 9.21899C28.6296 9.01859 28.4138 8.85233 28.1614 8.7168Z" fill="#179BD7"/>
<path d="M27.5414 8.46648C27.4507 8.43966 27.3569 8.41528 27.2607 8.39334C27.1642 8.37189 27.0651 8.35288 26.9633 8.3363C26.6066 8.27779 26.2159 8.25 25.7973 8.25H22.2639C22.1769 8.25 22.0943 8.26999 22.0203 8.30607C21.8573 8.38554 21.7363 8.54206 21.7069 8.73366L20.9552 13.5635L20.9336 13.7044C20.9831 13.3865 21.2508 13.1525 21.5685 13.1525H22.8911C25.4888 13.1525 27.5227 12.0823 28.1172 8.98623C28.1349 8.89456 28.1499 8.80534 28.1633 8.71807C28.0129 8.63713 27.8499 8.5679 27.6745 8.50889C27.6313 8.49427 27.5867 8.48013 27.5414 8.46648Z" fill="#222D65"/>
<path d="M21.7064 8.73231C21.7357 8.54069 21.8569 8.38418 22.0198 8.30519C22.0943 8.26911 22.1765 8.24912 22.2634 8.24912H25.7969C26.2155 8.24912 26.6062 8.27691 26.9627 8.33542C27.0647 8.352 27.1637 8.37101 27.2603 8.39246C27.3565 8.41441 27.4501 8.43879 27.541 8.4656C27.5861 8.47925 27.6308 8.49339 27.6745 8.50753C27.8499 8.56652 28.0129 8.63625 28.1633 8.7167C28.3402 7.57237 28.1619 6.79324 27.5521 6.08773C26.8797 5.31104 25.6661 4.97852 24.1133 4.97852H19.6052C19.288 4.97852 19.0175 5.21254 18.9684 5.53092L17.0908 17.6056C17.0537 17.8444 17.2353 18.06 17.4727 18.06H20.256L20.9548 13.5622L21.7064 8.73231Z" fill="#253B80"/>
</svg>
