<svg width="20" height="20" viewBox="0 0 20 20" fill="none" xmlns="http://www.w3.org/2000/svg">
<path d="M11.5554 2.92617L13.022 5.8595C13.222 6.26784 13.7554 6.6595 14.2054 6.7345L16.8637 7.17617C18.5637 7.4595 18.9637 8.69284 17.7387 9.9095L15.672 11.9762C15.322 12.3262 15.1304 13.0012 15.2387 13.4845L15.8304 16.0428C16.297 18.0678 15.222 18.8512 13.4304 17.7928L10.9387 16.3178C10.4887 16.0512 9.74703 16.0512 9.28869 16.3178L6.79703 17.7928C5.01369 18.8512 3.93036 18.0595 4.39703 16.0428L4.98869 13.4845C5.09703 13.0012 4.90536 12.3262 4.55536 11.9762L2.48869 9.9095C1.27203 8.69284 1.66369 7.4595 3.36369 7.17617L6.02203 6.7345C6.46369 6.6595 6.99703 6.26784 7.19703 5.8595L8.66369 2.92617C9.46369 1.33451 10.7637 1.33451 11.5554 2.92617Z" fill="#FFBA35"/>
</svg>
