<svg width="183" height="68" viewBox="0 0 183 68" fill="none" xmlns="http://www.w3.org/2000/svg">
<path d="M35.3013 61.1397C35.3013 60.4616 34.9316 60.1144 34.372 60.1144C33.8021 60.1144 33.4039 60.4719 33.4039 61.2173V62.886H33.0117V59.8305H33.4039V60.3514C33.5999 59.9715 33.9921 59.7754 34.4455 59.7754C35.1399 59.7754 35.6873 60.2002 35.6873 61.0968V62.888H35.3013V61.1397Z" fill="#FFCB00"/>
<path d="M38.7905 59.7832C39.4053 59.7832 39.826 60.1141 39.9996 60.5001V59.8281H40.3917V62.8836H39.9996V62.2055C39.8199 62.5976 39.395 62.9285 38.7844 62.9285C37.9511 62.9285 37.3281 62.3076 37.3281 61.3497C37.3281 60.3918 37.9511 59.7832 38.7905 59.7832ZM38.862 60.1263C38.2186 60.1263 37.7264 60.5736 37.7264 61.3518C37.7264 62.1238 38.2186 62.5895 38.862 62.5895C39.489 62.5895 39.9976 62.1197 39.9976 61.3579C39.9996 60.5961 39.489 60.1263 38.862 60.1263Z" fill="#FFCB00"/>
<path d="M42.3506 60.1593H41.9258V59.8284H42.3506V59.0625H42.7489V59.8284H43.5883V60.1593H42.7489V62.0567C42.7489 62.4325 42.8775 62.5489 43.2309 62.5489H43.5883V62.8838H43.1676C42.6365 62.8838 42.3506 62.6653 42.3506 62.0546V60.1593Z" fill="#FFCB00"/>
<path d="M47.8299 62.8855H47.4378V62.3484C47.254 62.7344 46.8496 62.9366 46.3962 62.9366C45.7018 62.9366 45.1523 62.5118 45.1523 61.6152V59.8301H45.5384V61.5702C45.5384 62.2483 45.908 62.5955 46.4677 62.5955C47.0375 62.5955 47.4358 62.2381 47.4358 61.4926V59.8301H47.8279V62.8855H47.8299Z" fill="#FFCB00"/>
<path d="M50.0718 62.886H49.6797V59.8305H50.0718V60.3738C50.2393 59.998 50.5927 59.7754 51.1176 59.7754V60.1839H51.0113C50.5028 60.1839 50.0718 60.4126 50.0718 61.1806V62.886Z" fill="#FFCB00"/>
<path d="M53.9389 59.7832C54.5537 59.7832 54.9744 60.1141 55.148 60.5001V59.8281H55.5402V62.8836H55.148V62.2055C54.9683 62.5976 54.5435 62.9285 53.9328 62.9285C53.0995 62.9285 52.4766 62.3076 52.4766 61.3497C52.4766 60.3918 53.0995 59.7832 53.9389 59.7832ZM54.0125 60.1263C53.3691 60.1263 52.8769 60.5736 52.8769 61.3518C52.8769 62.1238 53.3691 62.5895 54.0125 62.5895C54.6395 62.5895 55.148 62.1197 55.148 61.3579C55.148 60.5961 54.6374 60.1263 54.0125 60.1263Z" fill="#FFCB00"/>
<path d="M57.3867 58.7441H57.7789V62.8861H57.3867V58.7441Z" fill="#FFCB00"/>
<path d="M59.6211 58.7441H60.0132V62.8861H59.6211V58.7441Z" fill="#FFCB00"/>
<path d="M63.9698 59.8281H64.3722L62.5585 64.3235H62.15L62.7423 62.8693L61.4883 59.8302H61.9192L62.9609 62.4383L63.9698 59.8281Z" fill="#FFCB00"/>
<path d="M68.7359 62.886H68.3438V59.8305H68.7359V60.3738C68.9034 59.998 69.2567 59.7754 69.7816 59.7754V60.1839H69.6754C69.1668 60.1839 68.7359 60.4126 68.7359 61.1806V62.886Z" fill="#FFCB00"/>
<path d="M72.6581 62.9305C71.7962 62.9305 71.1406 62.3259 71.1406 61.3578C71.1406 60.3836 71.8126 59.7852 72.6683 59.7852C73.5302 59.7852 74.1961 60.3836 74.1961 61.3578C74.1961 62.3259 73.52 62.9305 72.6581 62.9305ZM72.6581 62.5873C73.2341 62.5873 73.7937 62.1952 73.7937 61.3558C73.7937 60.5163 73.2464 60.1242 72.6622 60.1242C72.0781 60.1242 71.5369 60.5163 71.5369 61.3558C71.5389 62.1972 72.076 62.5873 72.6581 62.5873Z" fill="#FFCB00"/>
<path d="M77.205 62.9305C76.3431 62.9305 75.6875 62.3259 75.6875 61.3578C75.6875 60.3836 76.3594 59.7852 77.2152 59.7852C78.0771 59.7852 78.7429 60.3836 78.7429 61.3578C78.7429 62.3259 78.0669 62.9305 77.205 62.9305ZM77.205 62.5873C77.781 62.5873 78.3406 62.1952 78.3406 61.3558C78.3406 60.5163 77.7912 60.1242 77.2091 60.1242C76.627 60.1242 76.0837 60.5163 76.0837 61.3558C76.0837 62.1972 76.6209 62.5873 77.205 62.5873Z" fill="#FFCB00"/>
<path d="M80.5225 60.1593H80.0977V59.8284H80.5225V59.0625H80.9208V59.8284H81.7602V60.1593H80.9208V62.0567C80.9208 62.4325 81.0494 62.5489 81.4007 62.5489H81.7581V62.8838H81.3394C80.8064 62.8838 80.5225 62.6653 80.5225 62.0546V60.1593Z" fill="#FFCB00"/>
<path d="M84.677 62.9305C83.8089 62.9305 83.1758 62.3259 83.1758 61.3578C83.1758 60.3836 83.7967 59.7852 84.677 59.7852C85.5715 59.7852 86.1209 60.4224 86.1209 61.2005C86.1209 61.3231 86.1209 61.4027 86.1107 61.509H83.5741C83.6088 62.2258 84.1071 62.5996 84.677 62.5996C85.1978 62.5996 85.5491 62.3259 85.6614 61.9174H86.076C85.9351 62.4934 85.4429 62.9305 84.677 62.9305ZM83.5741 61.1883H85.7227C85.739 60.4775 85.2243 60.1201 84.6586 60.1201C84.1051 60.1201 83.619 60.4775 83.5741 61.1883Z" fill="#FFCB00"/>
<path d="M89.0758 59.7838C89.6232 59.7838 90.0827 60.0861 90.2788 60.4884V58.7422H90.6709V62.8842H90.2788V62.202C90.0991 62.6044 89.6742 62.9291 89.0697 62.9291C88.2303 62.9291 87.6094 62.3082 87.6094 61.3503C87.6094 60.3924 88.2303 59.7838 89.0758 59.7838ZM89.1432 60.1269C88.4999 60.1269 88.0076 60.5742 88.0076 61.3524C88.0076 62.1244 88.4999 62.5901 89.1432 62.5901C89.7702 62.5901 90.2788 62.1203 90.2788 61.3585C90.2788 60.5967 89.7702 60.1269 89.1432 60.1269Z" fill="#FFCB00"/>
<path d="M92.4438 62.2363H92.8809L92.3049 63.7028H92.0312L92.4438 62.2363Z" fill="#FFCB00"/>
<path d="M98.527 59.7838C99.3665 59.7838 99.9812 60.3945 99.9812 61.3503C99.9812 62.3062 99.3603 62.9291 98.527 62.9291C97.9164 62.9291 97.4977 62.6105 97.3118 62.2122V62.8842H96.9258V58.7422H97.3118V60.5048C97.5017 60.1045 97.9286 59.7838 98.527 59.7838ZM98.4494 60.1269C97.8285 60.1269 97.3138 60.5967 97.3138 61.3585C97.3138 62.1203 97.8285 62.5901 98.4494 62.5901C99.0928 62.5901 99.585 62.1244 99.585 61.3524C99.585 60.5742 99.0928 60.1269 98.4494 60.1269Z" fill="#FFCB00"/>
<path d="M102.98 62.9305C102.112 62.9305 101.48 62.3259 101.48 61.3578C101.48 60.3836 102.101 59.7852 102.98 59.7852C103.874 59.7852 104.424 60.4224 104.424 61.2005C104.424 61.3231 104.424 61.4027 104.411 61.509H101.877C101.909 62.2258 102.408 62.5996 102.98 62.5996C103.5 62.5996 103.852 62.3259 103.964 61.9174H104.379C104.24 62.4934 103.748 62.9305 102.98 62.9305ZM101.877 61.1883H104.025C104.042 60.4775 103.527 60.1201 102.961 60.1201C102.41 60.1201 101.922 60.4775 101.877 61.1883Z" fill="#FFCB00"/>
<path d="M107.374 59.7832C107.989 59.7832 108.41 60.1141 108.583 60.5001V59.8281H108.976V62.8836H108.583V62.2055C108.404 62.5976 107.979 62.9285 107.368 62.9285C106.535 62.9285 105.914 62.3076 105.914 61.3497C105.914 60.3918 106.535 59.7832 107.374 59.7832ZM107.446 60.1263C106.803 60.1263 106.31 60.5736 106.31 61.3518C106.31 62.1238 106.803 62.5895 107.446 62.5895C108.073 62.5895 108.581 62.1197 108.581 61.3579C108.584 60.5961 108.073 60.1263 107.446 60.1263Z" fill="#FFCB00"/>
<path d="M113.469 62.8855H113.076V62.3484C112.891 62.7344 112.488 62.9366 112.035 62.9366C111.34 62.9366 110.793 62.5118 110.793 61.6152V59.8301H111.179V61.5702C111.179 62.2483 111.549 62.5955 112.108 62.5955C112.678 62.5955 113.076 62.2381 113.076 61.4926V59.8301H113.469V62.8855Z" fill="#FFCB00"/>
<path d="M115.429 60.1593H115.004V59.8284H115.429V59.0625H115.827V59.8284H116.666V60.1593H115.827V62.0567C115.827 62.4325 115.956 62.5489 116.309 62.5489H116.666V62.8838H116.246C115.715 62.8838 115.429 62.6653 115.429 62.0546V60.1593Z" fill="#FFCB00"/>
<path d="M118.172 58.9617C118.172 58.7942 118.301 58.6758 118.458 58.6758C118.615 58.6758 118.744 58.7942 118.744 58.9617C118.744 59.1292 118.615 59.2538 118.458 59.2538C118.301 59.2538 118.172 59.1312 118.172 58.9617ZM118.262 59.8297H118.654V62.8852H118.262V59.8297Z" fill="#FFCB00"/>
<path d="M120.597 60.1598H120.172V59.829H120.597V59.6165C120.597 58.9609 120.905 58.6484 121.677 58.6484V58.9834C121.156 58.9834 120.989 59.1733 120.989 59.6165V59.829H121.7V60.1598H120.989V62.8864H120.597V60.1598Z" fill="#FFCB00"/>
<path d="M125.914 62.8855H125.522V62.3484C125.336 62.7344 124.933 62.9366 124.48 62.9366C123.786 62.9366 123.238 62.5118 123.238 61.6152V59.8301H123.624V61.5702C123.624 62.2483 123.994 62.5955 124.554 62.5955C125.123 62.5955 125.522 62.2381 125.522 61.4926V59.8301H125.914V62.8855Z" fill="#FFCB00"/>
<path d="M127.762 58.7441H128.154V62.8861H127.762V58.7441Z" fill="#FFCB00"/>
<path d="M129.996 58.7441H130.388V62.8861H129.996V58.7441Z" fill="#FFCB00"/>
<path d="M134.345 59.8281H134.747L132.934 64.3235H132.525L133.117 62.8693L131.863 59.8302H132.294L133.336 62.4383L134.345 59.8281Z" fill="#FFCB00"/>
<path d="M140.833 59.8281H141.235L139.422 64.3235H139.013L139.606 62.8693L138.352 59.8302H138.783L139.824 62.4383L140.833 59.8281Z" fill="#FFCB00"/>
<path d="M144.06 62.9305C143.199 62.9305 142.543 62.3259 142.543 61.3578C142.543 60.3836 143.215 59.7852 144.071 59.7852C144.933 59.7852 145.598 60.3836 145.598 61.3578C145.598 62.3259 144.922 62.9305 144.06 62.9305ZM144.06 62.5873C144.636 62.5873 145.196 62.1952 145.196 61.3558C145.196 60.5163 144.649 60.1242 144.065 60.1242C143.482 60.1242 142.939 60.5163 142.939 61.3558C142.941 62.1972 143.478 62.5873 144.06 62.5873Z" fill="#FFCB00"/>
<path d="M149.914 62.8855H149.522V62.3484C149.336 62.7344 148.933 62.9366 148.48 62.9366C147.786 62.9366 147.238 62.5118 147.238 61.6152V59.8301H147.624V61.5702C147.624 62.2483 147.994 62.5955 148.554 62.5955C149.123 62.5955 149.522 62.2381 149.522 61.4926V59.8301H149.914V62.8855Z" fill="#FFCB00"/>
<path d="M21.8298 37.7202C18.9317 32.6815 17.1364 29.0236 17.1364 25.6434C17.1364 22.8146 18.4476 21.2257 20.4492 21.2257C22.5202 21.2257 22.7959 22.882 22.3813 24.1238C21.8298 25.9865 23.0716 27.5755 25.9004 27.1609C29.7646 26.6768 31.421 23.2272 31.421 19.1546C31.421 9.90661 22.657 5.14575 16.6523 5.14575H15.8946V52.4888H3.47266V4.17969H22.7959C30.3181 4.17969 44.1902 8.94055 44.1902 21.434C44.1902 30.4757 36.9437 32.8899 32.3891 32.8899C28.4554 32.8899 23.28 31.0946 21.6236 26.6789C21.2784 25.6434 21.1395 24.6079 19.8977 24.6079C19.8977 24.6079 18.1719 24.6079 18.1719 26.2643C18.0351 32.1301 38.8064 36.8235 44.3964 52.4888H30.3876L21.8298 37.7202Z" fill="#FFCB00"/>
<path d="M104.165 16.2539C93.6756 16.2539 86.8438 23.433 86.8438 34.3354C86.8438 45.2398 93.6756 52.4883 104.165 52.4883C114.655 52.4883 121.487 45.2398 121.487 34.3354C121.487 23.435 114.653 16.2539 104.165 16.2539ZM109.686 50.6236C105.546 51.9348 94.3516 50.9116 91.5903 42.9789C88.7616 34.7663 94.225 19.293 98.365 18.0512C102.644 16.8074 107.2 24.9525 109.892 32.7505C112.721 41.0304 113.689 49.4492 109.686 50.6236Z" fill="#FFCB00"/>
<path d="M47.9141 34.3354C47.9141 45.2398 54.7459 52.4883 65.2357 52.4883C75.7256 52.4883 82.5574 45.2398 82.5574 34.3354C82.5574 23.435 75.7256 16.2539 65.2357 16.2539C54.748 16.2539 47.9141 23.435 47.9141 34.3354ZM59.5109 32.7484C62.2028 24.9505 66.7594 16.8074 71.0382 18.0492C75.1782 19.293 80.6416 34.7643 77.8129 42.9768C75.0516 50.9116 63.8592 51.9348 59.7171 50.6216C55.712 49.4492 56.6801 41.0304 59.5109 32.7484Z" fill="#FFCB00"/>
<path d="M138.253 16.662V2.85938H127.212V16.662H123.789V19.8114H127.212V41.6448C127.212 52.2755 135.631 52.5492 138.186 52.4818C141.209 52.3449 143.165 51.3911 144.648 49.9349C144.424 49.604 144.225 49.267 144.05 48.9321C143.21 49.6673 142.22 50.2065 141.015 50.2065C138.876 50.276 138.253 48.5481 138.253 46.4097V19.8114H144.709C145.228 18.6717 145.937 17.6342 146.825 16.7151V16.662H138.253Z" fill="#FFCB00"/>
<path d="M170.137 28.6073C163.857 25.2945 156.545 22.9498 156.472 19.5676C156.402 18.3932 157.303 17.4292 159.511 17.4292C164.48 17.4292 170 22.6026 173.313 27.3655L179.11 22.3289C174.97 18.3932 167.862 16.3242 161.719 16.3242C156.956 16.3242 148.263 17.5681 148.263 24.7471C148.263 28.1253 150.124 30.5435 153.093 32.8187C155.095 34.4077 156.888 35.4412 154.611 35.8578C153.921 35.9947 147.293 37.2385 147.293 43.4495C147.293 50.9676 156.956 52.4892 164.204 52.4892C167.654 52.4892 179.387 52.142 179.455 40.3409C179.457 35.578 177.523 32.4736 170.137 28.6073ZM175.178 46.8971C169.588 46.8971 154.611 39.5117 154.47 37.2344C154.401 36.4032 156.265 36.8198 156.819 36.1295C157.025 35.8558 157.092 35.4391 156.543 34.8183C156.333 34.612 156.265 34.4751 157.783 35.3023C167.309 40.4083 177.247 42.273 177.247 45.5858C177.249 46.4825 176.485 46.8971 175.178 46.8971Z" fill="#FFCB00"/>
<path d="M170.137 28.6073C163.857 25.2945 156.545 22.9498 156.472 19.5676C156.402 18.3932 157.303 17.4292 159.511 17.4292C164.48 17.4292 170 22.6026 173.313 27.3655L179.11 22.3289C174.97 18.3932 167.862 16.3242 161.719 16.3242C156.956 16.3242 148.263 17.5681 148.263 24.7471C148.263 28.1253 150.124 30.5435 153.093 32.8187C155.095 34.4077 156.888 35.4412 154.611 35.8578C153.921 35.9947 147.293 37.2385 147.293 43.4495C147.293 50.9676 156.956 52.4892 164.204 52.4892C167.654 52.4892 179.387 52.142 179.455 40.3409C179.457 35.578 177.523 32.4736 170.137 28.6073ZM175.178 46.8971C169.588 46.8971 154.611 39.5117 154.47 37.2344C154.401 36.4032 156.265 36.8198 156.819 36.1295C157.025 35.8558 157.092 35.4391 156.543 34.8183C156.333 34.612 156.265 34.4751 157.783 35.3023C167.309 40.4083 177.247 42.273 177.247 45.5858C177.249 46.4825 176.485 46.8971 175.178 46.8971Z" fill="#FFCB00"/>
</svg>
