<svg width="28" height="28" viewBox="0 0 28 28" fill="none" xmlns="http://www.w3.org/2000/svg">
<path d="M22.1654 10.5007C22.1654 12.1923 21.6637 13.744 20.8004 15.039C19.5404 16.9057 17.5454 18.224 15.2237 18.5623C14.827 18.6323 14.4187 18.6673 13.9987 18.6673C13.5787 18.6673 13.1704 18.6323 12.7737 18.5623C10.452 18.224 8.45703 16.9057 7.19703 15.039C6.3337 13.744 5.83203 12.1923 5.83203 10.5007C5.83203 5.98565 9.4837 2.33398 13.9987 2.33398C18.5137 2.33398 22.1654 5.98565 22.1654 10.5007Z" stroke="#103C25" stroke-width="1.5" stroke-linecap="round" stroke-linejoin="round"/>
<path d="M24.7909 21.5491L22.8659 22.0041C22.4343 22.1091 22.0959 22.4358 22.0026 22.8675L21.5943 24.5825C21.3726 25.5158 20.1826 25.7958 19.5643 25.0608L13.9993 18.6675L8.43428 25.0724C7.81594 25.8074 6.62594 25.5274 6.40428 24.5941L5.99594 22.8791C5.89094 22.4474 5.55261 22.1091 5.13261 22.0158L3.20761 21.5608C2.32094 21.3508 2.00594 20.2424 2.64761 19.6008L7.19761 15.0508C8.45761 16.9174 10.4526 18.2358 12.7743 18.5741C13.1709 18.6441 13.5793 18.6791 13.9993 18.6791C14.4193 18.6791 14.8276 18.6441 15.2243 18.5741C17.5459 18.2358 19.5409 16.9174 20.8009 15.0508L25.3509 19.6008C25.9926 20.2308 25.6776 21.3391 24.7909 21.5491Z" stroke="#103C25" stroke-width="1.5" stroke-linecap="round" stroke-linejoin="round"/>
<path d="M14.6763 6.97602L15.3646 8.35267C15.458 8.53934 15.703 8.72601 15.9246 8.76101L17.173 8.97101C17.9663 9.09934 18.153 9.68268 17.5813 10.2543L16.613 11.2227C16.4496 11.386 16.3563 11.701 16.4146 11.9343L16.6946 13.136C16.9163 14.081 16.4146 14.4543 15.5746 13.9527L14.408 13.2643C14.198 13.136 13.848 13.136 13.638 13.2643L12.4713 13.9527C11.6313 14.4427 11.1296 14.081 11.3513 13.136L11.6313 11.9343C11.678 11.7127 11.5963 11.386 11.433 11.2227L10.4646 10.2543C9.89298 9.68268 10.0796 9.11101 10.873 8.97101L12.1213 8.76101C12.3313 8.72601 12.5763 8.53934 12.6696 8.35267L13.358 6.97602C13.6963 6.22935 14.303 6.22935 14.6763 6.97602Z" stroke="#103C25" stroke-width="1.5" stroke-linecap="round" stroke-linejoin="round"/>
</svg>
