<svg width="46" height="33" viewBox="0 0 46 33" fill="none" xmlns="http://www.w3.org/2000/svg">
<rect x="0.416667" y="1.1901" width="45.1667" height="31.1667" rx="4.58333" fill="white" stroke="#D9D9D9" stroke-width="0.833333"/>
<path fill-rule="evenodd" clip-rule="evenodd" d="M13.9644 22.451H11.1777L9.088 14.3631C8.98882 13.9911 8.77822 13.6622 8.46843 13.5072C7.69533 13.1176 6.84342 12.8076 5.91406 12.6512V12.3398H10.4032C11.0228 12.3398 11.4875 12.8076 11.5649 13.3508L12.6492 19.1848L15.4345 12.3398H18.1438L13.9644 22.451ZM19.6904 22.451H17.0586L19.2257 12.3398H21.8575L19.6904 22.451ZM25.2641 15.1417C25.3416 14.5971 25.8063 14.2857 26.3484 14.2857C27.2003 14.2076 28.1283 14.3639 28.9027 14.7521L29.3674 12.5752C28.593 12.2638 27.7411 12.1074 26.9679 12.1074C24.4136 12.1074 22.5549 13.508 22.5549 15.4517C22.5549 16.9305 23.8715 17.7069 24.8008 18.1746C25.8063 18.641 26.1935 18.9524 26.116 19.4188C26.116 20.1184 25.3416 20.4298 24.5685 20.4298C23.6391 20.4298 22.7098 20.1966 21.8592 19.807L21.3945 21.9854C22.3239 22.3736 23.3293 22.5299 24.2587 22.5299C27.1228 22.6068 28.9027 21.2076 28.9027 19.1074C28.9027 16.4627 25.2641 16.3077 25.2641 15.1417ZM38.1162 22.451L36.0266 12.3398H33.782C33.3173 12.3398 32.8526 12.6512 32.6977 13.1176L28.8281 22.451H31.5374L32.0782 20.9736H35.407L35.7168 22.451H38.1162ZM34.1675 15.0625L34.9406 18.8732H32.7734L34.1675 15.0625Z" fill="#172B85"/>
</svg>
