<svg width="28" height="28" viewBox="0 0 28 28" fill="none" xmlns="http://www.w3.org/2000/svg">
<path d="M13.8463 1.86016C13.7349 1.92208 13.5987 2.0521 13.5429 2.13879C13.4872 2.22547 13.1529 3.30902 12.7999 4.54118C12.2117 6.58445 12.1188 6.85689 11.7226 7.64943C10.7628 9.58125 9.36351 10.993 7.46265 11.9465C6.67011 12.3428 6.4534 12.4171 4.18103 13.0672C3.01699 13.4015 1.98916 13.7173 1.90248 13.7792C1.36999 14.126 1.3638 15.0981 1.89628 15.451C1.97678 15.5005 3.0046 15.8225 4.17484 16.1569C6.45959 16.8132 6.6763 16.8875 7.46265 17.2838C9.01058 18.0577 10.2737 19.1846 11.1963 20.6087C11.834 21.6056 12.1126 22.3115 12.7937 24.6891C13.1529 25.9274 13.4872 27.0048 13.5429 27.0915C13.9021 27.6363 14.868 27.6363 15.2271 27.0915C15.2828 27.0048 15.6172 25.9274 15.9763 24.6891C16.484 22.9059 16.6821 22.3053 16.9484 21.7542C17.97 19.6366 19.4065 18.2001 21.5241 17.1785C22.0751 16.9123 22.6757 16.7141 24.459 16.2064C25.6973 15.8473 26.7747 15.5129 26.8613 15.4572C27.4062 15.0981 27.4062 14.1322 26.8613 13.7731C26.7747 13.7173 25.6973 13.383 24.459 13.0239C22.6757 12.5161 22.0751 12.318 21.5241 12.0518C19.4065 11.0301 17.97 9.59363 16.9484 7.47606C16.6821 6.925 16.484 6.3244 15.9763 4.54118C15.6172 3.30283 15.2828 2.22547 15.2271 2.13879C15.0537 1.87254 14.7627 1.73633 14.385 1.73633C14.1559 1.73633 13.9764 1.77348 13.8463 1.86016ZM14.5584 7.03645C14.6389 7.2965 14.8246 7.79184 14.9794 8.13858C16.2487 11.0487 18.8369 13.4139 21.7965 14.3798C22.1432 14.4913 22.4281 14.5966 22.4343 14.6151C22.4343 14.6337 22.2237 14.708 21.9637 14.7885C19.6232 15.5005 17.4004 17.1847 15.9144 19.3766C15.4562 20.0515 14.868 21.2527 14.6265 22.0081C14.5088 22.3672 14.3974 22.6644 14.3788 22.6644C14.3602 22.6644 14.2983 22.5034 14.2426 22.2991C14.0754 21.6923 13.5615 20.553 13.1405 19.8471C11.7349 17.4881 9.40686 15.6182 6.88063 14.8195C6.58343 14.7204 6.33576 14.6275 6.33576 14.6089C6.33576 14.5842 6.46578 14.5346 6.63296 14.4913C6.79394 14.4541 7.26452 14.2808 7.67936 14.1074C10.7071 12.8629 13.1529 10.25 14.1497 7.19743C14.2612 6.8507 14.3664 6.56588 14.385 6.56588C14.4036 6.56588 14.4779 6.7764 14.5584 7.03645Z" fill="#103C25"/>
</svg>
