<svg width="28" height="28" viewBox="0 0 28 28" fill="none" xmlns="http://www.w3.org/2000/svg">
<path d="M1.26974 0.983824C0.843178 1.24632 0.793959 1.58539 1.01818 2.74476C1.71271 6.37054 2.95412 9.78851 4.27208 11.7573C5.17443 13.1026 6.01115 13.7588 7.21974 14.0815C7.76662 14.2237 8.99162 14.2565 9.68615 14.1362C10.2713 14.0377 11.119 13.808 11.5401 13.6276L11.7861 13.5237L11.9666 13.9666C12.6283 15.6018 13.0932 17.6963 13.2955 19.933C13.3885 20.994 13.3721 23.5807 13.2627 24.6635C13.1041 26.233 13.0986 26.5229 13.2299 26.7307C13.5744 27.2776 14.4494 27.2666 14.7776 26.7143C14.9854 26.3534 15.1604 24.3299 15.1713 22.0385L15.1822 20.3159L15.3244 20.0041C15.6799 19.2276 16.276 18.369 16.9869 17.6143L17.3971 17.1823L17.9549 17.4448C20.033 18.4127 21.8651 18.4455 23.2924 17.5323C24.851 16.5369 26.0705 14.8416 26.8033 12.6323C27.0549 11.883 27.0877 11.7299 27.0932 11.3088C27.0986 10.8549 27.0932 10.8276 26.9346 10.658C26.508 10.2041 24.6979 9.61898 23.2158 9.45492C20.7822 9.19242 18.4416 10.1112 17.1455 11.8338C16.4674 12.7416 16.0791 14.2346 16.2322 15.3776L16.276 15.7385L15.8002 16.2362C15.5377 16.5041 15.2041 16.8815 15.0619 17.0619L14.7994 17.401L14.6518 16.6901C14.3783 15.3666 14.001 14.1416 13.5252 12.9987L13.2791 12.4135L13.5526 11.9869C14.7557 10.1112 15.0838 8.1971 14.4549 6.69867C14.001 5.61039 12.8033 4.35804 11.376 3.47757C9.36896 2.2307 6.5088 1.35023 3.30958 0.983824C2.07365 0.841635 1.5049 0.841635 1.26974 0.983824ZM4.29943 2.95804C6.44865 3.30804 8.43927 3.92601 9.84474 4.68617C11.3158 5.47914 12.508 6.62757 12.8361 7.56273C12.9838 7.98929 12.9674 8.82054 12.8033 9.35101C12.6338 9.90335 12.3166 10.5869 12.2565 10.5213C12.2346 10.494 12.0815 10.2807 11.9283 10.0455C11.458 9.34007 10.8236 8.59632 10.0963 7.88539C9.26505 7.07601 9.15021 6.99945 8.75099 6.99945C8.20412 6.99945 7.87599 7.32757 7.87599 7.86351C7.87599 8.0221 7.90333 8.20804 7.93615 8.2682C7.96896 8.32835 8.38458 8.76585 8.8549 9.23617C9.69162 10.0619 10.233 10.7237 10.7197 11.5002C10.9932 11.9323 11.0041 11.9104 10.3916 12.1073C9.72443 12.3205 9.17755 12.4135 8.57599 12.4135C7.30724 12.4135 6.60724 11.9924 5.77052 10.7346C4.72599 9.16507 3.73615 6.55101 3.04162 3.52132L2.86115 2.73382L3.08537 2.76664C3.20568 2.78304 3.75802 2.87054 4.29943 2.95804ZM23.6697 11.3471C24.2111 11.451 25.0533 11.6916 25.1244 11.7573C25.2447 11.8776 24.5447 13.4854 24.0252 14.2674C23.4346 15.1534 22.5104 15.9901 21.8486 16.2362C21.444 16.3893 20.9846 16.4276 20.4815 16.351C19.951 16.2744 19.0158 15.9846 19.0596 15.9135C19.1088 15.8315 19.7869 15.4432 20.4651 15.0987C21.1104 14.776 21.2526 14.6393 21.3291 14.2948C21.4822 13.6221 20.8424 13.026 20.1971 13.2393C19.8963 13.3323 19.1197 13.7315 18.5455 14.076C18.2174 14.2784 18.0479 14.3549 18.0479 14.3002C18.0479 14.2565 18.108 14.0268 18.1846 13.7862C18.4252 13.0315 18.983 12.3807 19.8252 11.8721C20.1971 11.6479 21.0666 11.3416 21.5479 11.2705C22.0236 11.1994 23.1119 11.2377 23.6697 11.3471Z" fill="#103C25"/>
</svg>
