<svg width="28" height="28" viewBox="0 0 28 28" fill="none" xmlns="http://www.w3.org/2000/svg">
<path d="M25.6687 20.0668C25.6687 21.1168 25.3771 22.1084 24.8521 22.9484C23.8838 24.5701 22.1104 25.6668 20.0687 25.6668C18.0271 25.6668 16.2421 24.5701 15.2854 22.9484C14.7721 22.1084 14.4688 21.1168 14.4688 20.0668C14.4688 16.9751 16.9771 14.4668 20.0687 14.4668C23.1604 14.4668 25.6687 16.9751 25.6687 20.0668Z" stroke="#103C25" stroke-width="1.75" stroke-miterlimit="10" stroke-linecap="round" stroke-linejoin="round"/>
<path d="M17.8867 20.0661L19.2634 21.4428L22.25 18.6895" stroke="#103C25" stroke-width="1.75" stroke-linecap="round" stroke-linejoin="round"/>
<path d="M25.6654 10.1389C25.6654 12.4372 25.0704 14.4672 24.137 16.2289C23.1104 15.1439 21.6637 14.4672 20.0654 14.4672C16.9737 14.4672 14.4654 16.9756 14.4654 20.0672C14.4654 21.5022 15.0137 22.8089 15.9004 23.8006C15.4687 23.9989 15.072 24.1622 14.722 24.2789C14.3254 24.4189 13.672 24.4189 13.2754 24.2789C9.89203 23.1239 2.33203 18.3056 2.33203 10.1389C2.33203 6.53389 5.23703 3.61719 8.8187 3.61719C10.9304 3.61719 12.8204 4.6439 13.9987 6.2189C15.177 4.6439 17.067 3.61719 19.1787 3.61719C22.7604 3.61719 25.6654 6.53389 25.6654 10.1389Z" stroke="#103C25" stroke-width="1.9" stroke-linecap="round" stroke-linejoin="round"/>
</svg>
